<svg version="1.1" id="Layer_1" xmlns="http://www.w3.org/2000/svg" xmlns:xlink="http://www.w3.org/1999/xlink" x="0px" y="0px"
	 width="100%" viewBox="0 0 245 236" enable-background="new 0 0 245 236" xml:space="preserve">
<path fill="#FFFEFE" opacity="0.000000" stroke="none" 
	d="
M135.000000,237.000000 
	C90.000000,237.000000 45.500004,237.000000 1.000006,237.000000 
	C1.000004,158.333344 1.000004,79.666679 1.000002,1.000016 
	C82.666656,1.000011 164.333313,1.000011 245.999969,1.000005 
	C245.999985,79.666649 245.999985,158.333298 246.000000,236.999969 
	C209.166672,237.000000 172.333328,237.000000 135.000000,237.000000 
M41.035984,145.500656 
	C52.871674,186.160385 87.626686,212.806488 128.809540,212.795212 
	C169.329666,212.784119 204.572845,185.773392 215.971420,145.993423 
	C230.971252,93.645409 193.659073,37.602562 139.951324,31.811243 
	C75.371956,24.847635 25.779341,81.335518 41.035984,145.500656 
z"/>
<path fill="#F92A29" opacity="1.000000" stroke="none" 
	d="
M40.936329,145.103638 
	C25.779341,81.335518 75.371956,24.847635 139.951324,31.811243 
	C193.659073,37.602562 230.971252,93.645409 215.971420,145.993423 
	C204.572845,185.773392 169.329666,212.784119 128.809540,212.795212 
	C87.626686,212.806488 52.871674,186.160385 40.936329,145.103638 
M57.904625,102.626396 
	C46.539200,150.223160 78.945778,193.930023 126.659439,195.356247 
	C157.800873,196.287094 186.061829,177.167511 197.200058,147.632950 
	C208.088364,118.761063 199.218094,85.167137 175.539429,65.598740 
	C134.412384,31.610744 74.399315,50.129459 57.904625,102.626396 
z"/>
<path fill="#FCFAFA" opacity="1.000000" stroke="none" 
	d="
M58.004845,102.231407 
	C74.399315,50.129459 134.412384,31.610744 175.539429,65.598740 
	C199.218094,85.167137 208.088364,118.761063 197.200058,147.632950 
	C186.061829,177.167511 157.800873,196.287094 126.659439,195.356247 
	C78.945778,193.930023 46.539200,150.223160 58.004845,102.231407 
M148.606033,89.024132 
	C141.602371,80.276016 129.352432,78.226494 120.520973,84.325249 
	C111.059669,90.858948 109.919785,104.443649 117.746170,117.394295 
	C107.575813,126.438026 110.534935,145.479385 116.781044,151.616272 
	C124.052490,158.760574 138.234833,159.605331 146.175308,152.977524 
	C155.263641,145.391602 155.565002,129.733765 146.870758,116.844444 
	C153.209976,107.291809 153.821732,99.481903 148.606033,89.024132 
M88.187202,84.548080 
	C85.213120,86.381577 82.161629,88.104530 79.304527,90.105103 
	C78.221054,90.863747 76.940781,92.217529 76.861031,93.376488 
	C76.569344,97.614952 76.745590,101.885620 76.745590,106.807510 
	C80.411064,104.985886 83.382164,103.509338 87.028214,101.697365 
	C87.028214,120.343399 87.028214,138.082245 87.028214,155.887024 
	C91.844376,155.887024 96.235069,155.887024 100.658714,155.887024 
	C100.658714,131.210205 100.658714,106.865974 100.658714,81.278175 
	C96.300507,82.334862 92.569008,83.239586 88.187202,84.548080 
M190.037308,119.245476 
	C190.037308,116.837234 190.037308,114.429001 190.037308,112.027634 
	C186.302353,111.855583 183.384659,111.721176 180.135574,111.571503 
	C180.135574,108.099998 180.135574,105.163383 180.135574,102.111557 
	C177.049072,102.111557 174.338425,102.111557 171.185104,102.111557 
	C171.185104,105.355774 171.185104,108.291161 171.185104,111.548134 
	C167.837540,111.728149 164.915466,111.885284 161.746033,112.055717 
	C161.746033,115.032837 161.746033,117.786240 161.746033,121.129807 
	C165.044144,121.129807 168.083099,121.129807 171.503174,121.129807 
	C171.503174,124.660721 171.503174,127.598335 171.503174,130.733459 
	C174.492004,130.733459 177.074753,130.733459 179.981064,130.733459 
	C180.135986,127.443550 180.280914,124.365868 180.422592,121.357109 
	C183.763138,120.930923 186.810791,120.542099 190.037308,119.245476 
z"/>
<path fill="#080808" opacity="1.000000" stroke="none" 
	d="
M148.803085,89.342087 
	C153.821732,99.481903 153.209976,107.291809 146.870758,116.844444 
	C155.565002,129.733765 155.263641,145.391602 146.175308,152.977524 
	C138.234833,159.605331 124.052490,158.760574 116.781044,151.616272 
	C110.534935,145.479385 107.575813,126.438026 117.746170,117.394295 
	C109.919785,104.443649 111.059669,90.858948 120.520973,84.325249 
	C129.352432,78.226494 141.602371,80.276016 148.803085,89.342087 
M138.986038,135.296829 
	C138.882095,131.034149 139.692032,126.211380 133.801575,124.974403 
	C128.018585,123.760017 125.370827,127.177856 125.582085,135.203552 
	C125.690315,139.315369 126.376068,142.924408 131.543594,143.298935 
	C136.192383,143.635880 138.029526,141.887726 138.986038,135.296829 
M137.925873,101.735405 
	C137.427048,100.009552 137.404037,97.866257 136.331482,96.643738 
	C134.014633,94.002914 130.960022,94.107613 128.349686,96.349724 
	C125.763687,98.570953 125.695526,108.200813 128.622238,109.731247 
	C130.605408,110.768311 134.282394,110.662842 136.027756,109.419815 
	C137.525986,108.352791 137.358887,104.947403 137.925873,101.735405 
z"/>
<path fill="#070707" opacity="1.000000" stroke="none" 
	d="
M88.512360,84.346199 
	C92.569008,83.239586 96.300507,82.334862 100.658714,81.278175 
	C100.658714,106.865974 100.658714,131.210205 100.658714,155.887024 
	C96.235069,155.887024 91.844376,155.887024 87.028214,155.887024 
	C87.028214,138.082245 87.028214,120.343399 87.028214,101.697365 
	C83.382164,103.509338 80.411064,104.985886 76.745590,106.807510 
	C76.745590,101.885620 76.569344,97.614952 76.861031,93.376488 
	C76.940781,92.217529 78.221054,90.863747 79.304527,90.105103 
	C82.161629,88.104530 85.213120,86.381577 88.512360,84.346199 
z"/>
<path fill="#0C0C0C" opacity="1.000000" stroke="none" 
	d="
M189.947876,119.699371 
	C186.810791,120.542099 183.763138,120.930923 180.422592,121.357109 
	C180.280914,124.365868 180.135986,127.443550 179.981064,130.733459 
	C177.074753,130.733459 174.492004,130.733459 171.503174,130.733459 
	C171.503174,127.598335 171.503174,124.660721 171.503174,121.129807 
	C168.083099,121.129807 165.044144,121.129807 161.746033,121.129807 
	C161.746033,117.786240 161.746033,115.032837 161.746033,112.055717 
	C164.915466,111.885284 167.837540,111.728149 171.185104,111.548134 
	C171.185104,108.291161 171.185104,105.355774 171.185104,102.111557 
	C174.338425,102.111557 177.049072,102.111557 180.135574,102.111557 
	C180.135574,105.163383 180.135574,108.099998 180.135574,111.571503 
	C183.384659,111.721176 186.302353,111.855583 190.037308,112.027634 
	C190.037308,114.429001 190.037308,116.837234 189.947876,119.699371 
z"/>
<path fill="#F6F6F6" opacity="1.000000" stroke="none" 
	d="
M138.980240,135.726562 
	C138.029526,141.887726 136.192383,143.635880 131.543594,143.298935 
	C126.376068,142.924408 125.690315,139.315369 125.582085,135.203552 
	C125.370827,127.177856 128.018585,123.760017 133.801575,124.974403 
	C139.692032,126.211380 138.882095,131.034149 138.980240,135.726562 
z"/>
<path fill="#F4F4F4" opacity="1.000000" stroke="none" 
	d="
M137.927048,102.155746 
	C137.358887,104.947403 137.525986,108.352791 136.027756,109.419815 
	C134.282394,110.662842 130.605408,110.768311 128.622238,109.731247 
	C125.695526,108.200813 125.763687,98.570953 128.349686,96.349724 
	C130.960022,94.107613 134.014633,94.002914 136.331482,96.643738 
	C137.404037,97.866257 137.427048,100.009552 137.927048,102.155746 
z"/>
</svg>